<?xml version="1.0" standalone="no"?>
<!DOCTYPE svg PUBLIC "-//W3C//DTD SVG 20010904//EN"
 "http://www.w3.org/TR/2001/REC-SVG-20010904/DTD/svg10.dtd">
<svg version="1.0" xmlns="http://www.w3.org/2000/svg"
 width="1024.000000pt" height="1024.000000pt" viewBox="0 0 1024.000000 1024.000000"
 preserveAspectRatio="xMidYMid meet">
<metadata>
Created by potrace 1.16, written by Peter Selinger 2001-2019
</metadata>
<g transform="translate(0.000000,1024.000000) scale(0.100000,-0.100000)"
fill="#000000" stroke="none">
<path d="M5074 9501 c-11 -5 -34 -25 -52 -45 -24 -28 -32 -46 -32 -76 0 -36
-3 -41 -47 -66 -136 -76 -201 -139 -278 -269 -8 -13 -42 -21 -135 -35 -685
-101 -1405 -427 -1948 -883 -280 -235 -632 -645 -816 -949 -80 -134 -249 -474
-301 -608 -110 -282 -201 -636 -240 -933 -5 -40 -11 -51 -38 -67 -104 -59
-196 -155 -258 -267 -28 -50 -31 -53 -70 -53 -33 0 -47 -7 -82 -39 -39 -37
-42 -43 -42 -91 0 -48 3 -54 42 -91 35 -32 49 -39 82 -39 37 0 42 -3 67 -47
64 -114 131 -189 215 -244 24 -15 52 -34 61 -41 13 -10 23 -48 38 -146 74
-493 253 -989 517 -1432 148 -248 349 -500 605 -760 275 -279 600 -512 983
-705 380 -191 735 -309 1110 -371 88 -14 170 -28 182 -30 13 -2 30 -18 39 -37
44 -86 150 -186 262 -248 49 -28 52 -31 52 -70 0 -33 7 -47 39 -82 37 -39 43
-42 91 -42 48 0 54 3 91 42 32 35 39 49 39 82 0 39 3 42 53 70 111 62 217 162
261 248 18 36 14 34 171 58 555 83 1178 337 1653 672 719 509 1269 1277 1507
2106 47 166 97 398 117 546 12 89 15 95 43 112 102 58 194 155 256 267 28 49
31 52 70 52 33 0 47 7 82 39 39 37 42 43 42 91 0 48 -3 54 -42 91 -35 32 -49
39 -82 39 -39 0 -42 3 -70 53 -62 111 -154 208 -256 266 -28 17 -31 23 -43
112 -141 1044 -744 2030 -1624 2651 -322 229 -796 457 -1177 569 -148 43 -435
104 -545 115 -74 8 -79 11 -125 83 -54 84 -130 151 -243 215 -45 25 -48 30
-48 67 0 56 -58 118 -115 124 -22 3 -49 1 -61 -4z m14 -606 c27 -31 35 -31 65
1 31 33 52 27 105 -30 73 -79 65 -152 -30 -269 -48 -59 -98 -148 -98 -174 0
-7 -4 -13 -10 -13 -5 0 -10 6 -10 13 0 26 -50 115 -98 174 -98 122 -104 193
-23 275 27 27 55 48 63 48 8 0 24 -11 36 -25z m-513 -370 c21 -29 38 -65 31
-65 -27 0 -213 -43 -371 -86 -205 -56 -381 -117 -387 -135 -6 -19 -139 -32
-233 -23 l-89 9 57 38 c218 144 517 256 833 310 90 16 117 8 159 -48z m1387
19 c269 -61 487 -148 678 -271 l75 -48 -90 -9 c-94 -9 -227 4 -233 23 -9 28
-459 165 -671 205 -47 9 -86 17 -87 19 -9 9 36 74 67 97 36 25 42 27 96 18 32
-5 106 -20 165 -34z m1334 -559 c29 -7 56 -50 56 -90 0 -43 -26 -81 -64 -94
-21 -8 -350 -11 -1054 -11 l-1024 0 -31 -28 c-24 -21 -32 -39 -36 -74 -5 -42
-2 -49 30 -84 l35 -39 687 -5 c595 -4 687 -7 695 -20 27 -43 -4 -77 -75 -82
-61 -4 -67 -20 -31 -75 35 -54 102 -257 117 -353 15 -98 3 -224 -37 -370 -47
-176 -110 -299 -235 -453 -129 -161 -230 -249 -474 -417 -222 -153 -282 -199
-366 -281 -82 -81 -179 -219 -222 -315 -81 -184 -77 -433 10 -597 34 -64 172
-205 273 -279 41 -30 154 -101 250 -158 330 -195 454 -302 595 -515 149 -223
182 -335 192 -643 5 -165 3 -201 -12 -257 l-17 -65 -49 0 -48 0 14 48 c24 83
13 301 -23 469 -53 249 -116 367 -287 538 -138 139 -265 232 -415 305 -319
157 -511 345 -552 542 -10 50 -15 58 -33 56 -20 -3 -20 -9 -23 -371 -2 -356
-2 -370 18 -397 23 -33 26 -72 6 -103 -11 -17 -15 -72 -18 -232 l-3 -209 325
-188 c179 -103 429 -247 556 -320 l231 -133 -516 -5 c-388 -4 -521 -8 -538
-18 -36 -20 -53 -53 -53 -102 1 -49 11 -67 50 -93 24 -15 113 -17 1043 -17
1100 -1 1067 1 1096 -54 26 -48 6 -124 -36 -140 -20 -8 -4346 -8 -4366 0 -25
9 -49 53 -49 89 0 43 26 81 63 94 20 7 371 10 1046 11 930 0 1019 2 1043 17
39 26 49 44 50 93 0 49 -17 82 -53 102 -17 10 -150 14 -538 18 l-516 5 231
133 c127 73 377 217 556 320 l325 188 -3 204 c-3 186 -5 209 -25 247 l-21 41
27 41 27 41 -2 367 c-3 362 -3 368 -23 371 -18 2 -23 -6 -33 -56 -41 -197
-233 -385 -552 -542 -150 -73 -277 -166 -415 -305 -171 -171 -233 -288 -288
-538 -27 -124 -31 -161 -30 -292 0 -82 5 -167 10 -187 l11 -38 -48 0 -48 0
-17 65 c-15 56 -17 92 -12 257 9 306 46 427 195 653 129 195 270 315 592 505
96 57 209 128 250 158 101 74 239 215 273 279 87 164 91 413 10 597 -43 96
-140 234 -222 315 -84 82 -144 128 -366 281 -244 168 -345 256 -474 417 -130
161 -193 285 -242 478 -36 144 -45 259 -29 356 16 93 83 292 116 342 36 55 30
71 -31 75 -71 5 -102 39 -75 82 8 13 100 16 695 20 l687 5 35 39 c32 35 35 42
30 84 -4 35 -12 53 -36 74 l-31 28 -1024 0 c-704 0 -1033 3 -1054 11 -79 27
-86 151 -11 183 19 8 635 10 2180 9 1185 -1 2164 -5 2175 -8z m-4471 -376 c33
-18 62 -33 64 -35 2 -2 -54 -63 -125 -136 -424 -436 -707 -924 -838 -1446 -25
-101 -46 -194 -46 -208 0 -13 -4 -24 -10 -24 -5 0 -10 -6 -10 -14 0 -39 -63
-24 -103 24 -38 44 -36 111 8 285 96 376 182 588 352 861 123 199 186 281 344
454 175 192 257 270 282 270 12 0 49 -14 82 -31z m4762 -36 c107 -105 309
-329 376 -417 82 -108 252 -383 300 -486 89 -192 148 -363 212 -615 44 -174
46 -241 8 -285 -59 -71 -106 -60 -123 27 -125 624 -411 1156 -884 1641 -71 73
-127 134 -125 136 18 16 129 66 146 66 13 0 48 -26 90 -67z m-4107 -37 c0 -28
-13 -47 -41 -62 l-29 -15 0 -734 0 -734 -31 11 c-17 6 -53 8 -80 5 l-49 -6 0
722 c0 397 -4 727 -8 733 -4 7 -24 19 -44 27 -36 15 -50 42 -31 60 3 4 75 7
160 7 125 0 153 -3 153 -14z m3598 -14 c3 -18 -4 -26 -35 -38 -21 -9 -41 -21
-45 -28 -4 -6 -8 -336 -8 -733 l0 -722 -49 6 c-27 3 -63 1 -80 -5 l-31 -11 0
734 0 734 -29 15 c-28 15 -41 34 -41 62 0 12 26 14 158 12 155 -3 157 -3 160
-26z m-4523 -1372 c82 -32 184 -133 225 -223 70 -155 59 -315 -32 -472 -71
-121 -210 -223 -387 -284 -76 -27 -105 -51 -85 -71 6 -6 37 -18 69 -26 69 -18
158 -61 235 -114 222 -153 304 -417 200 -647 -41 -89 -143 -191 -225 -224
-143 -57 -345 -5 -401 103 -9 16 -13 37 -10 45 5 12 13 9 41 -16 49 -43 81
-58 154 -71 120 -22 220 19 299 123 85 110 109 228 73 361 -25 92 -61 147
-133 209 -166 140 -348 215 -581 238 -110 11 -132 11 -193 -4 -96 -24 -170
-63 -230 -123 -51 -50 -53 -50 -80 -36 -70 35 -125 76 -145 108 -20 32 -20 36
-5 53 21 23 21 59 0 82 -15 17 -15 21 5 53 20 32 75 73 146 109 29 15 30 14
68 -29 45 -51 168 -116 254 -135 76 -16 271 2 389 37 177 51 378 179 454 289
16 23 39 78 51 121 36 133 12 251 -73 361 -79 104 -179 145 -299 123 -75 -14
-107 -29 -160 -77 -39 -35 -39 -35 -39 -11 0 46 41 91 119 130 41 20 86 39
100 41 52 10 137 -1 196 -23z m5398 0 c89 -33 147 -93 147 -151 0 -20 -3 -18
-39 14 -53 48 -85 63 -160 77 -120 22 -220 -19 -299 -123 -85 -110 -109 -228
-73 -361 12 -43 35 -98 51 -121 76 -110 277 -238 454 -289 118 -35 313 -53
389 -37 86 19 209 84 254 135 38 43 39 44 68 29 71 -36 126 -77 146 -109 20
-32 20 -36 5 -53 -9 -10 -16 -28 -16 -41 0 -13 7 -31 16 -41 15 -17 15 -21 -5
-53 -20 -32 -75 -73 -146 -109 -29 -15 -30 -14 -68 29 -45 51 -168 116 -254
135 -76 16 -271 -2 -389 -37 -177 -51 -378 -179 -454 -289 -16 -23 -39 -78
-51 -121 -36 -133 -12 -251 73 -361 79 -104 179 -145 299 -123 75 14 107 29
160 77 36 32 39 34 39 14 0 -91 -132 -173 -280 -175 -109 -1 -176 28 -263 115
-164 164 -189 391 -65 604 73 124 228 236 403 289 61 19 70 25 70 46 0 21 -9
27 -70 46 -133 40 -259 117 -343 209 -29 31 -52 61 -52 67 0 5 -8 22 -19 36
-10 15 -27 52 -38 82 -58 158 -29 325 80 462 59 72 102 105 180 134 75 29 161
27 250 -6z m-4154 -180 c126 -150 275 -289 417 -391 34 -24 121 -86 193 -137
72 -52 133 -98 136 -103 7 -10 -49 13 -140 59 -86 43 -299 174 -383 236 -159
117 -289 273 -343 410 -45 114 -38 129 22 49 28 -37 72 -93 98 -123z m2770 97
c-44 -138 -184 -309 -351 -433 -84 -62 -297 -193 -383 -236 -91 -46 -147 -69
-140 -59 3 5 64 51 136 103 72 51 159 113 193 137 104 74 209 166 301 263 90
95 242 279 253 307 4 11 7 11 10 2 2 -7 -6 -45 -19 -84z m-3177 -243 c40 -20
61 -68 55 -121 -6 -53 -36 -89 -87 -104 -73 -22 -160 44 -160 121 0 47 46 105
96 120 31 9 54 5 96 -16z m3586 -1 c30 -18 62 -71 62 -101 0 -79 -86 -145
-160 -123 -51 15 -81 51 -87 104 -7 60 17 103 70 127 44 20 75 18 115 -7z
m-4519 -79 c12 -15 21 -35 21 -46 0 -24 -44 -68 -68 -68 -33 0 -72 38 -72 71
0 65 80 93 119 43z m5421 6 c20 -20 26 -65 12 -86 -10 -15 -47 -34 -67 -34
-22 0 -65 45 -65 68 0 59 79 93 120 52z m-4119 -242 c43 -59 105 -191 124
-263 22 -85 19 -199 -6 -281 -37 -120 -129 -274 -164 -274 -29 0 -25 24 24
123 81 162 100 300 62 449 -19 75 -79 207 -108 240 -13 14 -13 20 -3 33 20 24
38 18 71 -27z m2799 27 c10 -13 10 -19 -3 -33 -29 -33 -89 -165 -108 -240 -38
-149 -19 -287 62 -449 49 -99 53 -123 24 -123 -35 0 -127 154 -164 274 -25 82
-28 196 -6 281 29 113 135 305 169 305 7 0 19 -7 26 -15z m-3102 -124 c64 -32
118 -86 147 -144 l26 -52 -43 -3 c-27 -2 -44 1 -47 9 -8 25 -76 91 -112 110
-25 12 -58 19 -96 19 -235 -1 -319 -301 -119 -425 42 -25 59 -30 115 -30 83 0
141 30 191 98 35 47 65 59 97 39 20 -13 -31 -105 -84 -152 -156 -137 -396 -93
-498 91 -27 49 -30 62 -30 149 0 84 3 101 27 146 39 74 116 138 198 165 48 16
182 4 228 -20z m3590 -10 c134 -69 201 -202 178 -354 -9 -57 -74 -158 -128
-197 -155 -113 -388 -58 -472 112 -28 56 -24 68 24 68 18 0 34 -13 60 -47 50
-68 108 -98 191 -98 56 0 73 5 115 30 158 98 146 330 -21 406 -54 25 -145 25
-194 0 -36 -19 -104 -85 -112 -110 -3 -8 -20 -11 -47 -9 l-43 3 27 52 c32 64
99 126 168 153 69 27 192 23 254 -9z m-2422 -570 c-4 -5 -99 -71 -212 -147
-113 -76 -246 -174 -295 -219 -105 -94 -226 -245 -351 -437 -50 -76 -95 -138
-99 -138 -25 0 11 182 52 263 37 73 86 144 105 151 8 3 14 12 14 19 0 22 198
208 280 264 85 57 232 133 395 204 123 54 118 52 111 40z m1114 -46 c118 -50
303 -147 380 -198 91 -62 254 -218 320 -307 26 -36 62 -93 79 -127 41 -81 77
-263 52 -263 -4 0 -49 62 -99 138 -125 192 -246 343 -351 437 -49 45 -182 143
-295 219 -207 138 -246 169 -184 143 18 -8 62 -27 98 -42z m-3267 -227 c51
-68 -46 -143 -107 -82 -22 22 -20 70 5 95 28 28 76 22 102 -13z m900 18 c46
-19 69 -49 74 -99 14 -123 -132 -190 -211 -96 -56 66 -38 155 38 190 49 22 58
23 99 5z m3593 -5 c63 -29 90 -100 60 -159 -35 -67 -97 -91 -162 -63 -54 24
-78 67 -71 128 5 49 27 79 72 99 40 18 53 17 101 -5z m924 -1 c20 -20 26 -65
12 -86 -10 -15 -47 -34 -67 -34 -22 0 -65 45 -65 68 0 59 79 93 120 52z
m-6018 -91 c3 -13 27 -112 53 -219 125 -524 408 -1016 839 -1458 71 -73 127
-134 125 -136 -12 -11 -126 -66 -136 -66 -20 0 -100 59 -135 99 -18 21 -89 98
-157 172 -157 170 -219 252 -344 453 -170 273 -256 485 -352 861 -44 175 -46
241 -8 285 45 54 101 59 115 9z m6606 -5 c28 -30 32 -40 32 -91 0 -93 -85
-412 -165 -618 -69 -177 -116 -270 -222 -441 -123 -199 -186 -281 -344 -454
-175 -192 -257 -270 -282 -270 -17 0 -128 50 -146 66 -2 2 54 63 125 136 424
436 707 924 838 1446 25 101 46 194 46 208 0 13 9 33 21 45 26 26 54 18 97
-27z m-5039 -1708 c40 -21 59 -76 26 -76 -8 0 -15 4 -15 8 0 5 -25 5 -56 0
-32 -5 -96 -7 -143 -6 -81 3 -86 4 -89 26 -3 18 4 26 35 38 21 9 41 21 45 28
4 6 8 322 8 703 l0 692 53 -6 c28 -2 63 0 77 5 l25 9 3 -703 2 -704 29 -14z
m3502 1407 l49 6 0 -692 c0 -381 4 -697 8 -703 4 -7 24 -19 45 -28 31 -12 38
-20 35 -38 -3 -22 -7 -23 -126 -26 -77 -2 -130 2 -143 9 -15 8 -19 8 -15 0 4
-7 -1 -11 -13 -11 -38 0 -23 53 20 76 l29 15 0 704 0 704 31 -11 c17 -6 53 -8
80 -5z m-2277 -278 l7 -61 -49 -17 c-60 -22 -203 -116 -284 -187 -129 -114
-245 -295 -256 -398 -4 -41 -10 -51 -45 -77 -37 -27 -79 -76 -114 -131 -10
-16 -12 -6 -12 56 -2 270 158 523 453 718 92 61 285 167 291 160 1 -2 5 -30 9
-63z m-873 -1875 c30 -6 55 -15 57 -20 9 -27 462 -165 671 -204 47 -9 86 -17
87 -19 9 -8 -35 -73 -64 -95 -42 -32 -62 -31 -237 8 -289 64 -506 150 -705
277 l-75 48 45 6 c75 10 164 10 221 -1z m2874 2 l50 -7 -75 -48 c-199 -127
-416 -213 -705 -277 -175 -39 -195 -40 -237 -8 -29 22 -73 87 -64 95 1 2 40
10 87 19 210 39 662 177 671 205 8 23 166 35 273 21z m-1523 -240 c10 -27 32
-68 50 -91 110 -145 128 -187 109 -252 -11 -38 -89 -119 -114 -119 -7 0 -23
11 -35 25 -12 14 -29 25 -37 25 -8 0 -22 -11 -31 -25 -9 -14 -22 -25 -29 -25
-7 0 -35 21 -63 48 -85 80 -80 152 20 275 48 59 98 148 98 175 0 27 16 9 32
-36z"/>
<path d="M3846 7418 c-59 -103 -90 -266 -91 -468 0 -137 2 -150 32 -236 85
-244 284 -501 459 -591 198 -103 357 -142 612 -150 l183 -6 -2 -322 c-1 -321
-1 -322 25 -395 14 -40 32 -80 41 -89 13 -14 17 -14 30 0 9 9 27 49 41 89 26
73 26 74 25 395 l-2 322 183 6 c255 8 414 47 612 150 175 90 374 347 459 591
30 86 32 99 32 236 -1 202 -32 365 -91 468 l-25 42 -603 0 c-571 0 -604 -1
-619 -18 -10 -10 -17 -24 -17 -30 0 -7 -4 -12 -10 -12 -5 0 -10 6 -10 13 0 8
-8 21 -18 30 -17 15 -74 17 -620 17 l-601 0 -25 -42z m453 -194 c-185 -244
-187 -512 -5 -711 48 -52 48 -54 20 -47 -57 13 -144 67 -194 120 -59 62 -96
137 -112 223 -27 146 55 336 179 412 34 21 140 68 155 69 4 0 -15 -30 -43 -66z"/>
</g>
</svg>
